<svg xmlns="http://www.w3.org/2000/svg" viewBox="0 0 1600 900">
  <defs>
    <!-- Fade from edges so center stays cleaner -->
    <radialGradient id="fadeLeft" cx="0.18" cy="0.62" r="0.86">
      <stop offset="0" stop-color="white" stop-opacity="1"/>
      <stop offset="0.60" stop-color="white" stop-opacity="0.72"/>
      <stop offset="1" stop-color="white" stop-opacity="0"/>
    </radialGradient>

    <radialGradient id="fadeRight" cx="0.86" cy="0.30" r="0.92">
      <stop offset="0" stop-color="white" stop-opacity="1"/>
      <stop offset="0.60" stop-color="white" stop-opacity="0.72"/>
      <stop offset="1" stop-color="white" stop-opacity="0"/>
    </radialGradient>

    <mask id="maskBoth">
      <rect width="1600" height="900" fill="black"/>
      <rect width="1600" height="900" fill="url(#fadeLeft)"/>
      <rect width="1600" height="900" fill="url(#fadeRight)"/>
    </mask>

    <style>
      /* Main mesh edges (front layer) */
      .E1{ stroke:#fff; stroke-opacity:.48; stroke-width:1.1; fill:none; }
      .E2{ stroke:#fff; stroke-opacity:.60; stroke-width:1.8; fill:none; }
      .E3{ stroke:#fff; stroke-opacity:.74; stroke-width:2.8; fill:none; }

      /* Micro layer edges (depth layer) */
      .e0{ stroke:#fff; stroke-opacity:.22; stroke-width:0.9; fill:none; }
      .e1{ stroke:#fff; stroke-opacity:.28; stroke-width:1.1; fill:none; }

      /* Nodes */
      .Nw { fill:#fff; fill-opacity:.92; }
      .Nw2{ fill:#fff; fill-opacity:.62; }
      .Nm { fill:#9c3185; fill-opacity:.82; } /* ~5% nodes only */
    </style>
  </defs>

  <g mask="url(#maskBoth)">

    <!-- =========================================================
         LEFT SIDE: DEPTH MICRO-LAYER (faint small points/links)
         ========================================================= -->
    <g>
      <path class="e0" d="M90 770 L150 720 L210 760 L270 700 L330 740 L390 690" />
      <path class="e0" d="M150 720 L210 650 L270 700 L330 640 L390 690 L450 630" />
      <path class="e0" d="M210 650 L160 600 L240 560 L300 600 L330 640" />
      <path class="e1" d="M240 560 L210 500 L280 470 L340 510 L300 600" />
      <path class="e0" d="M210 500 L170 460 L230 420 L290 450 L280 470" />
      <path class="e0" d="M230 420 L200 360 L260 330 L320 360 L290 450" />
      <path class="e0" d="M320 360 L360 300 L430 320 L470 360 L410 410" />
      <path class="e1" d="M410 410 L450 460 L520 440 L560 480 L500 520" />
      <path class="e0" d="M450 460 L430 320" />
      <path class="e0" d="M390 690 L450 630 L510 670 L560 610 L620 650" />

      <!-- micro nodes -->
      <circle class="Nw2" cx="90"  cy="770" r="4.5"/>
      <circle class="Nw2" cx="150" cy="720" r="4"/>
      <circle class="Nw2" cx="210" cy="760" r="4"/>
      <circle class="Nw2" cx="270" cy="700" r="4"/>
      <circle class="Nw2" cx="330" cy="740" r="3.8"/>
      <circle class="Nw2" cx="390" cy="690" r="4"/>
      <circle class="Nw2" cx="210" cy="650" r="4"/>
      <circle class="Nw2" cx="330" cy="640" r="4"/>
      <circle class="Nw2" cx="450" cy="630" r="4"/>
      <circle class="Nw2" cx="160" cy="600" r="3.6"/>
      <circle class="Nw2" cx="240" cy="560" r="4"/>
      <circle class="Nw2" cx="300" cy="600" r="3.6"/>
      <circle class="Nw2" cx="210" cy="500" r="4"/>
      <circle class="Nw2" cx="170" cy="460" r="3.6"/>
      <circle class="Nw2" cx="230" cy="420" r="4"/>
      <circle class="Nw2" cx="200" cy="360" r="3.6"/>
      <circle class="Nw2" cx="260" cy="330" r="3.6"/>
      <circle class="Nw2" cx="320" cy="360" r="3.6"/>
      <circle class="Nw2" cx="360" cy="300" r="3.6"/>
      <circle class="Nw2" cx="430" cy="320" r="3.6"/>
      <circle class="Nw2" cx="470" cy="360" r="3.6"/>
      <circle class="Nw2" cx="410" cy="410" r="3.8"/>
      <circle class="Nw2" cx="450" cy="460" r="3.8"/>
      <circle class="Nw2" cx="520" cy="440" r="3.8"/>
      <circle class="Nw2" cx="560" cy="480" r="3.8"/>
      <circle class="Nw2" cx="500" cy="520" r="3.8"/>
      <circle class="Nw2" cx="510" cy="670" r="3.8"/>
      <circle class="Nw2" cx="560" cy="610" r="3.8"/>
      <circle class="Nw2" cx="620" cy="650" r="3.8"/>
    </g>

    <!-- =========================================================
         RIGHT SIDE: DEPTH MICRO-LAYER (faint small points/links)
         ========================================================= -->
    <g>
      <path class="e0" d="M980 240 L1060 190 L1140 230 L1220 180 L1300 220 L1380 170 L1460 210" />
      <path class="e0" d="M1060 190 L1100 270 L1180 300 L1260 260 L1220 180" />
      <path class="e1" d="M1100 270 L1140 350 L1220 380 L1300 340 L1180 300" />
      <path class="e0" d="M1220 380 L1200 470 L1280 500 L1360 460 L1300 340" />
      <path class="e0" d="M1360 460 L1480 420 L1460 210" />
      <path class="e0" d="M1200 470 L1120 540 L1040 500" />
      <path class="e1" d="M1120 540 L1280 500 L1440 560" />

      <!-- micro nodes -->
      <circle class="Nw2" cx="980"  cy="240" r="4"/>
      <circle class="Nw2" cx="1060" cy="190" r="4"/>
      <circle class="Nw2" cx="1140" cy="230" r="4"/>
      <circle class="Nw2" cx="1220" cy="180" r="4"/>
      <circle class="Nw2" cx="1300" cy="220" r="4"/>
      <circle class="Nw2" cx="1380" cy="170" r="4"/>
      <circle class="Nw2" cx="1460" cy="210" r="4"/>
      <circle class="Nw2" cx="1100" cy="270" r="4"/>
      <circle class="Nw2" cx="1180" cy="300" r="4"/>
      <circle class="Nw2" cx="1260" cy="260" r="4"/>
      <circle class="Nw2" cx="1140" cy="350" r="3.8"/>
      <circle class="Nw2" cx="1220" cy="380" r="4"/>
      <circle class="Nw2" cx="1300" cy="340" r="3.8"/>
      <circle class="Nw2" cx="1200" cy="470" r="3.8"/>
      <circle class="Nw2" cx="1280" cy="500" r="4"/>
      <circle class="Nw2" cx="1360" cy="460" r="4"/>
      <circle class="Nw2" cx="1480" cy="420" r="4"/>
      <circle class="Nw2" cx="1120" cy="540" r="3.8"/>
      <circle class="Nw2" cx="1040" cy="500" r="3.8"/>
      <circle class="Nw2" cx="1440" cy="560" r="3.8"/>
    </g>

    <!-- =========================================================
         LEFT SIDE: MAIN MESH (front layer, dense triangulation)
         ========================================================= -->
    <g>
      <!-- edges -->
      <path class="E3" d="M150 720 L260 640 L380 700 L500 620 L640 690" />
      <path class="E2" d="M260 640 L300 540 L420 580 L500 620" />
      <path class="E2" d="M300 540 L220 460 L340 420 L460 480 L420 580" />
      <path class="E1" d="M220 460 L170 520 L260 640" />
      <path class="E2" d="M340 420 L280 340 L400 300 L520 350 L460 480" />
      <path class="E1" d="M400 300 L460 230 L580 260 L640 330" />
      <path class="E2" d="M520 350 L640 330 L720 420 L640 470 L460 480" />
      <path class="E2" d="M500 620 L620 560 L760 610 L640 690" />
      <path class="E1" d="M620 560 L640 470 L720 420" />
      <path class="E2" d="M640 470 L780 450 L880 520 L760 610" />
      <path class="E1" d="M780 450 L910 430 L980 500 L880 520" />
      <path class="E2" d="M420 580 L620 560" />
      <path class="E1" d="M380 700 L500 620" />
      <path class="E1" d="M640 330 L780 450" />
      <path class="E2" d="M580 260 L520 350" />
      <path class="E1" d="M280 340 L220 460" />

      <!-- extra triangulation (fills "missing links") -->
      <path class="E1" d="M260 640 L380 700" />
      <path class="E1" d="M300 540 L420 580" />
      <path class="E1" d="M340 420 L460 480" />
      <path class="E1" d="M400 300 L520 350" />
      <path class="E1" d="M640 470 L760 610" />
      <path class="E1" d="M720 420 L880 520" />
      <path class="E1" d="M500 620 L640 690" />

      <!-- nodes -->
      <circle class="Nw"  cx="150" cy="720" r="11"/>
      <circle class="Nw2" cx="170" cy="520" r="6"/>
      <circle class="Nw"  cx="220" cy="460" r="8"/>
      <circle class="Nw"  cx="260" cy="640" r="10"/>
      <circle class="Nw2" cx="300" cy="540" r="7"/>
      <circle class="Nw2" cx="280" cy="340" r="6"/>
      <circle class="Nw"  cx="340" cy="420" r="10"/>
      <circle class="Nw"  cx="380" cy="700" r="7"/>
      <circle class="Nw"  cx="400" cy="300" r="9"/>
      <circle class="Nw"  cx="460" cy="230" r="8"/>
      <circle class="Nw"  cx="520" cy="350" r="12"/>
      <circle class="Nw"  cx="460" cy="480" r="10"/>
      <circle class="Nw2" cx="420" cy="580" r="7"/>
      <circle class="Nw"  cx="500" cy="620" r="11"/>
      <circle class="Nw2" cx="580" cy="260" r="6"/>
      <circle class="Nw"  cx="640" cy="330" r="10"/>
      <circle class="Nw"  cx="640" cy="470" r="9"/>
      <circle class="Nw2" cx="620" cy="560" r="7"/>
      <circle class="Nw"  cx="640" cy="690" r="10"/>
      <circle class="Nw2" cx="720" cy="420" r="7"/>
      <circle class="Nw"  cx="760" cy="610" r="11"/>
      <circle class="Nw"  cx="780" cy="450" r="9"/>
      <circle class="Nw2" cx="880" cy="520" r="7"/>
      <circle class="Nw2" cx="910" cy="430" r="6"/>
      <circle class="Nw2" cx="980" cy="500" r="6"/>

      <!-- magenta node (~5%) -->
      <circle class="Nm" cx="520" cy="350" r="6"/>
    </g>

    <!-- =========================================================
         RIGHT SIDE: MAIN MESH (front layer, dense triangulation)
         ========================================================= -->
    <g>
      <!-- edges -->
      <path class="E3" d="M980 240 L1120 160 L1260 220 L1400 140 L1520 210" />
      <path class="E2" d="M1120 160 L1160 280 L1280 300 L1260 220" />
      <path class="E2" d="M1160 280 L1240 380 L1380 360 L1520 420" />
      <path class="E3" d="M1280 300 L1360 260 L1480 300 L1520 420" />
      <path class="E1" d="M1400 140 L1540 170" />
      <path class="E2" d="M1480 300 L1540 260" />
      <path class="E1" d="M1240 380 L1220 480 L1340 520 L1520 420" />
      <path class="E2" d="M1340 520 L1540 600" />
      <path class="E1" d="M1220 480 L1140 560 L1000 520" />
      <path class="E2" d="M1140 560 L1340 520" />

      <!-- extra triangulation -->
      <path class="E1" d="M1260 220 L1360 260" />
      <path class="E1" d="M1380 360 L1480 300" />
      <path class="E1" d="M1120 160 L980 240" />
      <path class="E1" d="M1240 380 L1280 300" />
      <path class="E1" d="M1220 480 L1340 520" />
      <path class="E1" d="M1340 520 L1520 420" />

      <!-- nodes -->
      <circle class="Nw"  cx="980"  cy="240" r="10"/>
      <circle class="Nw"  cx="1120" cy="160" r="11"/>
      <circle class="Nw2" cx="1160" cy="280" r="7"/>
      <circle class="Nw"  cx="1260" cy="220" r="12"/>
      <circle class="Nw2" cx="1280" cy="300" r="7"/>
      <circle class="Nw2" cx="1360" cy="260" r="6"/>
      <circle class="Nw"  cx="1400" cy="140" r="10"/>
      <circle class="Nw2" cx="1480" cy="300" r="7"/>
      <circle class="Nw2" cx="1520" cy="210" r="6"/>
      <circle class="Nw"  cx="1240" cy="380" r="10"/>
      <circle class="Nw2" cx="1380" cy="360" r="7"/>
      <circle class="Nw2" cx="1220" cy="480" r="6"/>
      <circle class="Nw"  cx="1340" cy="520" r="10"/>
      <circle class="Nw2" cx="1520" cy="420" r="7"/>
      <circle class="Nw2" cx="1000" cy="520" r="6"/>
      <circle class="Nw2" cx="1140" cy="560" r="6"/>
      <circle class="Nw2" cx="1540" cy="170" r="7"/>
      <circle class="Nw2" cx="1540" cy="260" r="7"/>
      <circle class="Nw2" cx="1540" cy="600" r="7"/>

      <!-- magenta node (~5%) -->
      <circle class="Nm" cx="1480" cy="300" r="6"/>
    </g>

  </g>
</svg>
