<svg xmlns="http://www.w3.org/2000/svg" viewBox="0 0 1600 900">
  <defs>
    <!-- Fade from edges, keep center cleaner -->
    <radialGradient id="fadeLeft" cx="0.18" cy="0.62" r="0.82">
      <stop offset="0" stop-color="white" stop-opacity="1"/>
      <stop offset="0.55" stop-color="white" stop-opacity="0.65"/>
      <stop offset="1" stop-color="white" stop-opacity="0"/>
    </radialGradient>

    <radialGradient id="fadeRight" cx="0.86" cy="0.30" r="0.88">
      <stop offset="0" stop-color="white" stop-opacity="1"/>
      <stop offset="0.55" stop-color="white" stop-opacity="0.65"/>
      <stop offset="1" stop-color="white" stop-opacity="0"/>
    </radialGradient>

    <mask id="maskBoth">
      <rect width="1600" height="900" fill="black"/>
      <rect width="1600" height="900" fill="url(#fadeLeft)"/>
      <rect width="1600" height="900" fill="url(#fadeRight)"/>
    </mask>

    <style>
      /* White edges only, varied weights (triangulated mesh feel) */
      .e1{ stroke:#fff; stroke-opacity:.50; stroke-width:1.2; fill:none; }
      .e2{ stroke:#fff; stroke-opacity:.62; stroke-width:1.8; fill:none; }
      .e3{ stroke:#fff; stroke-opacity:.74; stroke-width:2.6; fill:none; }

      /* Nodes */
      .nW { fill:#fff; fill-opacity:.95; }
      .nW2{ fill:#fff; fill-opacity:.70; }
      .nM { fill:#9c3185; fill-opacity:.85; } /* ~5% nodes only */
    </style>
  </defs>

  <g mask="url(#maskBoth)">
    <!-- =====================================================
         LEFT DENSE MESH (triangulated)
         ===================================================== -->
    <g>
      <!-- edges -->
      <path class="e2" d="M120 720 L220 660 L320 710 L410 640 L520 690" />
      <path class="e1" d="M220 660 L260 560 L360 590 L410 640" />
      <path class="e2" d="M260 560 L180 500 L280 450 L380 500 L360 590" />
      <path class="e1" d="M180 500 L120 560 L120 720" />
      <path class="e2" d="M280 450 L220 380 L320 340 L420 380 L380 500" />
      <path class="e1" d="M320 340 L360 260 L460 290 L520 340" />
      <path class="e2" d="M420 380 L520 340 L600 410 L520 470 L380 500" />
      <path class="e3" d="M410 640 L520 570 L640 610 L520 690" />
      <path class="e1" d="M520 570 L520 470 L600 410" />
      <path class="e2" d="M520 470 L640 450 L720 520 L640 610" />
      <path class="e1" d="M640 450 L740 430 L820 480 L720 520" />
      <path class="e2" d="M360 590 L520 570" />
      <path class="e1" d="M320 710 L410 640" />
      <path class="e1" d="M520 340 L640 450" />
      <path class="e2" d="M460 290 L420 380" />
      <path class="e1" d="M220 380 L180 500" />

      <!-- nodes (many, varied sizes) -->
      <circle class="nW"  cx="120" cy="720" r="10"/>
      <circle class="nW2" cx="120" cy="560" r="6"/>
      <circle class="nW"  cx="180" cy="500" r="7"/>
      <circle class="nW2" cx="220" cy="660" r="6"/>
      <circle class="nW"  cx="260" cy="560" r="9"/>
      <circle class="nW2" cx="280" cy="450" r="6"/>
      <circle class="nW"  cx="220" cy="380" r="8"/>
      <circle class="nW2" cx="320" cy="340" r="6"/>
      <circle class="nW"  cx="360" cy="260" r="9"/>
      <circle class="nW"  cx="460" cy="290" r="11"/>
      <circle class="nW2" cx="420" cy="380" r="6"/>
      <circle class="nW"  cx="380" cy="500" r="10"/>
      <circle class="nW2" cx="360" cy="590" r="7"/>
      <circle class="nW"  cx="410" cy="640" r="11"/>
      <circle class="nW2" cx="320" cy="710" r="6"/>
      <circle class="nW"  cx="520" cy="690" r="10"/>
      <circle class="nW2" cx="520" cy="570" r="7"/>
      <circle class="nW"  cx="520" cy="470" r="9"/>
      <circle class="nW2" cx="600" cy="410" r="6"/>
      <circle class="nW"  cx="640" cy="450" r="10"/>
      <circle class="nW2" cx="740" cy="430" r="6"/>
      <circle class="nW"  cx="820" cy="480" r="9"/>
      <circle class="nW"  cx="720" cy="520" r="11"/>
      <circle class="nW2" cx="640" cy="610" r="7"/>

      <!-- ~5% magenta nodes -->
      <circle class="nM" cx="520" cy="470" r="6"/>
    </g>

    <!-- =====================================================
         RIGHT DENSE MESH (triangulated)
         ===================================================== -->
    <g>
      <!-- edges -->
      <path class="e2" d="M960 240 L1080 170 L1210 220 L1330 150 L1460 210" />
      <path class="e1" d="M1080 170 L1120 290 L1240 300 L1210 220" />
      <path class="e2" d="M1120 290 L1210 380 L1340 360 L1460 420" />
      <path class="e3" d="M1240 300 L1320 260 L1440 300 L1460 420" />
      <path class="e1" d="M1330 150 L1500 170" />
      <path class="e2" d="M1440 300 L1500 260" />
      <path class="e1" d="M1210 380 L1180 490 L1320 520 L1460 420" />
      <path class="e2" d="M1320 520 L1500 600" />
      <path class="e1" d="M1180 490 L1100 560 L980 520" />
      <path class="e2" d="M1100 560 L1320 520" />
      <path class="e1" d="M1210 220 L1320 260" />
      <path class="e2" d="M1340 360 L1440 300" />
      <path class="e1" d="M1080 170 L960 240" />
      <path class="e2" d="M1210 380 L1240 300" />

      <!-- nodes -->
      <circle class="nW"  cx="960"  cy="240" r="9"/>
      <circle class="nW"  cx="1080" cy="170" r="11"/>
      <circle class="nW2" cx="1120" cy="290" r="7"/>
      <circle class="nW2" cx="1180" cy="490" r="6"/>
      <circle class="nW"  cx="1210" cy="380" r="10"/>
      <circle class="nW"  cx="1210" cy="220" r="12"/>
      <circle class="nW2" cx="1240" cy="300" r="7"/>
      <circle class="nW"  cx="1320" cy="520" r="10"/>
      <circle class="nW2" cx="1320" cy="260" r="6"/>
      <circle class="nW"  cx="1340" cy="360" r="8"/>
      <circle class="nW"  cx="1330" cy="150" r="10"/>
      <circle class="nW"  cx="1440" cy="300" r="9"/>
      <circle class="nW2" cx="1460" cy="420" r="7"/>
      <circle class="nW2" cx="980"  cy="520" r="6"/>
      <circle class="nW2" cx="1100" cy="560" r="6"/>
      <circle class="nW2" cx="1500" cy="170" r="7"/>
      <circle class="nW2" cx="1500" cy="260" r="7"/>
      <circle class="nW2" cx="1500" cy="600" r="7"/>
      <circle class="nW2" cx="1460" cy="210" r="6"/>

      <!-- ~5% magenta nodes -->
      <circle class="nM" cx="1340" cy="360" r="6"/>
    </g>
  </g>
</svg>