<svg xmlns="http://www.w3.org/2000/svg" width="1200" height="700" viewBox="0 0 1200 700">
  <defs>
    <linearGradient id="fade" x1="0" y1="0" x2="1" y2="0">
      <stop offset="0" stop-color="white" stop-opacity="0.00"/>
      <stop offset="0.55" stop-color="white" stop-opacity="0.25"/>
      <stop offset="1" stop-color="white" stop-opacity="0.55"/>
    </linearGradient>
    <mask id="mask">
      <rect width="1200" height="700" fill="url(#fade)"/>
    </mask>
  </defs>

  <g mask="url(#mask)" stroke="#ffffff" stroke-opacity="0.55" stroke-width="2" fill="none">
    <!-- edges -->
    <path d="M720 180 L820 130 L930 160 L1030 110" />
    <path d="M720 180 L770 250 L860 230 L930 300 L1050 260" />
    <path d="M860 230 L930 160" />
    <path d="M820 130 L860 230" />
    <path d="M930 160 L930 300" />
  </g>

  <!-- nodes -->
  <g mask="url(#mask)" fill="#ffffff" fill-opacity="0.85">
    <circle cx="720" cy="180" r="6"/>
    <circle cx="820" cy="130" r="6"/>
    <circle cx="930" cy="160" r="6"/>
    <circle cx="1030" cy="110" r="6"/>
    <circle cx="770" cy="250" r="6"/>
    <circle cx="860" cy="230" r="6"/>
    <circle cx="930" cy="300" r="6"/>
    <circle cx="1050" cy="260" r="6"/>
  </g>
</svg>